<svg width="1280" height="720" xmlns="http://www.w3.org/2000/svg" xmlns:xlink="http://www.w3.org/1999/xlink" overflow="hidden"><defs><linearGradient x1="85.0833" y1="347.581" x2="1194.92" y2="347.581" gradientUnits="userSpaceOnUse" spreadMethod="reflect" id="fill0"><stop offset="0" stop-color="#1C285F"/><stop offset="0.00840336" stop-color="#1D275E"/><stop offset="0.0168067" stop-color="#1F275E"/><stop offset="0.0252101" stop-color="#21275E"/><stop offset="0.0336134" stop-color="#23275E"/><stop offset="0.0420168" stop-color="#25275E"/><stop offset="0.0504202" stop-color="#27275E"/><stop offset="0.0588235" stop-color="#28275E"/><stop offset="0.0672269" stop-color="#2A275E"/><stop offset="0.0756303" stop-color="#2C275E"/><stop offset="0.0840336" stop-color="#2E275E"/><stop offset="0.092437" stop-color="#2F275E"/><stop offset="0.10084" stop-color="#31275E"/><stop offset="0.109244" stop-color="#33275E"/><stop offset="0.117647" stop-color="#35275E"/><stop offset="0.12605" stop-color="#36275E"/><stop offset="0.134454" stop-color="#38275E"/><stop offset="0.142857" stop-color="#3A275D"/><stop offset="0.151261" stop-color="#3B275D"/><stop offset="0.159664" stop-color="#3D275D"/><stop offset="0.168067" stop-color="#3F275D"/><stop offset="0.176471" stop-color="#40275D"/><stop offset="0.184874" stop-color="#42275D"/><stop offset="0.193277" stop-color="#43275D"/><stop offset="0.201681" stop-color="#45275C"/><stop offset="0.210084" stop-color="#46275C"/><stop offset="0.218487" stop-color="#48275C"/><stop offset="0.226891" stop-color="#49275C"/><stop offset="0.235294" stop-color="#4B275C"/><stop offset="0.243697" stop-color="#4C275B"/><stop offset="0.252101" stop-color="#4E275B"/><stop offset="0.260504" stop-color="#4F275B"/><stop offset="0.268908" stop-color="#51275B"/><stop offset="0.277311" stop-color="#52275B"/><stop offset="0.285714" stop-color="#54275A"/><stop offset="0.294118" stop-color="#55265A"/><stop offset="0.302521" stop-color="#56265A"/><stop offset="0.310924" stop-color="#58265A"/><stop offset="0.319328" stop-color="#592659"/><stop offset="0.327731" stop-color="#5B2659"/><stop offset="0.336134" stop-color="#5C2659"/><stop offset="0.344538" stop-color="#5D2659"/><stop offset="0.352941" stop-color="#5E2658"/><stop offset="0.361345" stop-color="#602658"/><stop offset="0.369748" stop-color="#612658"/><stop offset="0.378151" stop-color="#622658"/><stop offset="0.386555" stop-color="#632657"/><stop offset="0.394958" stop-color="#652657"/><stop offset="0.403361" stop-color="#662657"/><stop offset="0.411765" stop-color="#672656"/><stop offset="0.420168" stop-color="#682656"/><stop offset="0.428571" stop-color="#692556"/><stop offset="0.436975" stop-color="#6B2555"/><stop offset="0.445378" stop-color="#6C2555"/><stop offset="0.453782" stop-color="#6D2555"/><stop offset="0.462185" stop-color="#6E2554"/><stop offset="0.470588" stop-color="#6F2554"/><stop offset="0.478992" stop-color="#702554"/><stop offset="0.487395" stop-color="#712553"/><stop offset="0.495798" stop-color="#722553"/><stop offset="0.504202" stop-color="#732553"/><stop offset="0.512605" stop-color="#742552"/><stop offset="0.521008" stop-color="#752552"/><stop offset="0.529412" stop-color="#762451"/><stop offset="0.537815" stop-color="#772451"/><stop offset="0.546219" stop-color="#782451"/><stop offset="0.554622" stop-color="#792450"/><stop offset="0.563025" stop-color="#7A2450"/><stop offset="0.571429" stop-color="#7B244F"/><stop offset="0.579832" stop-color="#7C244F"/><stop offset="0.588235" stop-color="#7D244F"/><stop offset="0.596639" stop-color="#7E244E"/><stop offset="0.605042" stop-color="#7E244E"/><stop offset="0.613445" stop-color="#7F234D"/><stop offset="0.621849" stop-color="#80234D"/><stop offset="0.630252" stop-color="#81234C"/><stop offset="0.638655" stop-color="#82234C"/><stop offset="0.647059" stop-color="#82234B"/><stop offset="0.655462" stop-color="#83234B"/><stop offset="0.663866" stop-color="#84234B"/><stop offset="0.672269" stop-color="#85234A"/><stop offset="0.680672" stop-color="#85234A"/><stop offset="0.689076" stop-color="#862349"/><stop offset="0.697479" stop-color="#872249"/><stop offset="0.705882" stop-color="#872248"/><stop offset="0.714286" stop-color="#882248"/><stop offset="0.722689" stop-color="#892247"/><stop offset="0.731092" stop-color="#892247"/><stop offset="0.739496" stop-color="#8A2246"/><stop offset="0.747899" stop-color="#8A2246"/><stop offset="0.756303" stop-color="#8B2245"/><stop offset="0.764706" stop-color="#8C2144"/><stop offset="0.773109" stop-color="#8C2144"/><stop offset="0.781513" stop-color="#8D2143"/><stop offset="0.789916" stop-color="#8D2143"/><stop offset="0.798319" stop-color="#8E2142"/><stop offset="0.806723" stop-color="#8E2142"/><stop offset="0.815126" stop-color="#8E2141"/><stop offset="0.823529" stop-color="#8F2141"/><stop offset="0.831933" stop-color="#8F2040"/><stop offset="0.840336" stop-color="#90203F"/><stop offset="0.84874" stop-color="#90203F"/><stop offset="0.857143" stop-color="#90203E"/><stop offset="0.865546" stop-color="#91203E"/><stop offset="0.87395" stop-color="#91203D"/><stop offset="0.882353" stop-color="#91203C"/><stop offset="0.890756" stop-color="#921F3C"/><stop offset="0.89916" stop-color="#921F3B"/><stop offset="0.907563" stop-color="#921F3B"/><stop offset="0.915966" stop-color="#921F3A"/><stop offset="0.92437" stop-color="#931F39"/><stop offset="0.932773" stop-color="#931F39"/><stop offset="0.941176" stop-color="#931F38"/><stop offset="0.94958" stop-color="#931E37"/><stop offset="0.957983" stop-color="#931E37"/><stop offset="0.966387" stop-color="#931E36"/><stop offset="0.97479" stop-color="#931E36"/><stop offset="0.983193" stop-color="#931E35"/><stop offset="0.991597" stop-color="#931E34"/><stop offset="1" stop-color="#941E34"/></linearGradient><linearGradient x1="85.0833" y1="347.581" x2="1194.92" y2="347.581" gradientUnits="userSpaceOnUse" spreadMethod="reflect" id="fill1"><stop offset="0" stop-color="#1C285F"/><stop offset="0.00840336" stop-color="#1D275E"/><stop offset="0.0168067" stop-color="#1F275E"/><stop offset="0.0252101" stop-color="#21275E"/><stop offset="0.0336134" stop-color="#23275E"/><stop offset="0.0420168" stop-color="#25275E"/><stop offset="0.0504202" stop-color="#27275E"/><stop offset="0.0588235" stop-color="#28275E"/><stop offset="0.0672269" stop-color="#2A275E"/><stop offset="0.0756303" stop-color="#2C275E"/><stop offset="0.0840336" stop-color="#2E275E"/><stop offset="0.092437" stop-color="#2F275E"/><stop offset="0.10084" stop-color="#31275E"/><stop offset="0.109244" stop-color="#33275E"/><stop offset="0.117647" stop-color="#35275E"/><stop offset="0.12605" stop-color="#36275E"/><stop offset="0.134454" stop-color="#38275E"/><stop offset="0.142857" stop-color="#3A275D"/><stop offset="0.151261" stop-color="#3B275D"/><stop offset="0.159664" stop-color="#3D275D"/><stop offset="0.168067" stop-color="#3F275D"/><stop offset="0.176471" stop-color="#40275D"/><stop offset="0.184874" stop-color="#42275D"/><stop offset="0.193277" stop-color="#43275D"/><stop offset="0.201681" stop-color="#45275C"/><stop offset="0.210084" stop-color="#46275C"/><stop offset="0.218487" stop-color="#48275C"/><stop offset="0.226891" stop-color="#49275C"/><stop offset="0.235294" stop-color="#4B275C"/><stop offset="0.243697" stop-color="#4C275B"/><stop offset="0.252101" stop-color="#4E275B"/><stop offset="0.260504" stop-color="#4F275B"/><stop offset="0.268908" stop-color="#51275B"/><stop offset="0.277311" stop-color="#52275B"/><stop offset="0.285714" stop-color="#54275A"/><stop offset="0.294118" stop-color="#55265A"/><stop offset="0.302521" stop-color="#56265A"/><stop offset="0.310924" stop-color="#58265A"/><stop offset="0.319328" stop-color="#592659"/><stop offset="0.327731" stop-color="#5B2659"/><stop offset="0.336134" stop-color="#5C2659"/><stop offset="0.344538" stop-color="#5D2659"/><stop offset="0.352941" stop-color="#5E2658"/><stop offset="0.361345" stop-color="#602658"/><stop offset="0.369748" stop-color="#612658"/><stop offset="0.378151" stop-color="#622658"/><stop offset="0.386555" stop-color="#632657"/><stop offset="0.394958" stop-color="#652657"/><stop offset="0.403361" stop-color="#662657"/><stop offset="0.411765" stop-color="#672656"/><stop offset="0.420168" stop-color="#682656"/><stop offset="0.428571" stop-color="#692556"/><stop offset="0.436975" stop-color="#6B2555"/><stop offset="0.445378" stop-color="#6C2555"/><stop offset="0.453782" stop-color="#6D2555"/><stop offset="0.462185" stop-color="#6E2554"/><stop offset="0.470588" stop-color="#6F2554"/><stop offset="0.478992" stop-color="#702554"/><stop offset="0.487395" stop-color="#712553"/><stop offset="0.495798" stop-color="#722553"/><stop offset="0.504202" stop-color="#732553"/><stop offset="0.512605" stop-color="#742552"/><stop offset="0.521008" stop-color="#752552"/><stop offset="0.529412" stop-color="#762451"/><stop offset="0.537815" stop-color="#772451"/><stop offset="0.546219" stop-color="#782451"/><stop offset="0.554622" stop-color="#792450"/><stop offset="0.563025" stop-color="#7A2450"/><stop offset="0.571429" stop-color="#7B244F"/><stop offset="0.579832" stop-color="#7C244F"/><stop offset="0.588235" stop-color="#7D244F"/><stop offset="0.596639" stop-color="#7E244E"/><stop offset="0.605042" stop-color="#7E244E"/><stop offset="0.613445" stop-color="#7F234D"/><stop offset="0.621849" stop-color="#80234D"/><stop offset="0.630252" stop-color="#81234C"/><stop offset="0.638655" stop-color="#82234C"/><stop offset="0.647059" stop-color="#82234B"/><stop offset="0.655462" stop-color="#83234B"/><stop offset="0.663866" stop-color="#84234B"/><stop offset="0.672269" stop-color="#85234A"/><stop offset="0.680672" stop-color="#85234A"/><stop offset="0.689076" stop-color="#862349"/><stop offset="0.697479" stop-color="#872249"/><stop offset="0.705882" stop-color="#872248"/><stop offset="0.714286" stop-color="#882248"/><stop offset="0.722689" stop-color="#892247"/><stop offset="0.731092" stop-color="#892247"/><stop offset="0.739496" stop-color="#8A2246"/><stop offset="0.747899" stop-color="#8A2246"/><stop offset="0.756303" stop-color="#8B2245"/><stop offset="0.764706" stop-color="#8C2144"/><stop offset="0.773109" stop-color="#8C2144"/><stop offset="0.781513" stop-color="#8D2143"/><stop offset="0.789916" stop-color="#8D2143"/><stop offset="0.798319" stop-color="#8E2142"/><stop offset="0.806723" stop-color="#8E2142"/><stop offset="0.815126" stop-color="#8E2141"/><stop offset="0.823529" stop-color="#8F2141"/><stop offset="0.831933" stop-color="#8F2040"/><stop offset="0.840336" stop-color="#90203F"/><stop offset="0.84874" stop-color="#90203F"/><stop offset="0.857143" stop-color="#90203E"/><stop offset="0.865546" stop-color="#91203E"/><stop offset="0.87395" stop-color="#91203D"/><stop offset="0.882353" stop-color="#91203C"/><stop offset="0.890756" stop-color="#921F3C"/><stop offset="0.89916" stop-color="#921F3B"/><stop offset="0.907563" stop-color="#921F3B"/><stop offset="0.915966" stop-color="#921F3A"/><stop offset="0.92437" stop-color="#931F39"/><stop offset="0.932773" stop-color="#931F39"/><stop offset="0.941176" stop-color="#931F38"/><stop offset="0.94958" stop-color="#931E37"/><stop offset="0.957983" stop-color="#931E37"/><stop offset="0.966387" stop-color="#931E36"/><stop offset="0.97479" stop-color="#931E36"/><stop offset="0.983193" stop-color="#931E35"/><stop offset="0.991597" stop-color="#931E34"/><stop offset="1" stop-color="#941E34"/></linearGradient></defs><g><rect x="0" y="0" width="1280" height="720" fill="#FFFFFF"/><path d="M256.255 309.429C243.859 309.429 233.378 312.209 224.81 317.769 216.242 323.329 209.725 331.076 205.259 341.011 203.026 345.979 201.351 351.368 200.235 357.178L199.194 364.664 312.162 364.664 311.953 362.639C310.949 354.692 309.108 347.528 306.431 341.148 302.147 330.94 295.812 323.101 287.427 317.633 279.042 312.164 268.651 309.429 256.255 309.429ZM255.435 240.25C276.945 240.25 296.678 243.622 314.634 250.367 332.59 257.112 348.176 267.092 361.392 280.308 374.608 293.524 384.816 309.794 392.017 329.117 399.217 348.44 402.818 370.771 402.818 396.109L402.818 420.172 198.652 420.172 198.682 421.554C199.25 434.703 201.807 445.863 206.353 455.035 211.548 465.517 218.794 473.355 228.091 478.55 237.388 483.746 248.234 486.343 260.63 486.343 269.198 486.343 276.991 485.159 284.009 482.789 291.027 480.419 297.043 476.864 302.056 472.125 307.069 467.385 310.851 461.643 313.404 454.898L398.443 468.843C393.338 486.343 384.543 501.61 372.056 514.644 359.569 527.678 343.801 537.75 324.751 544.859 305.702 551.968 283.781 555.523 258.99 555.523 227.088 555.523 199.562 549.188 176.411 536.519 153.26 523.85 135.532 505.757 123.228 482.242 110.923 458.726 104.771 430.653 104.771 398.023 104.771 366.669 110.923 339.143 123.228 315.445 135.532 291.747 152.987 273.29 175.591 260.074 198.195 246.858 224.81 240.25 255.435 240.25ZM453.135 142.359 603.526 142.359 655.479 300.953C658.396 310.614 661.723 323.42 665.46 339.371 669.196 355.321 672.979 372.411 676.807 390.64 679.678 404.312 682.37 417.625 684.882 430.579L685.991 436.38 687.044 430.844C689.539 417.873 692.188 404.517 694.991 390.777 698.728 372.457 702.465 355.367 706.202 339.507 709.939 323.648 713.266 310.797 716.182 300.953L767.315 142.359 917.979 142.359 917.979 549.781 820.909 549.781 820.909 374.234C820.909 365.119 821.091 353.407 821.456 339.097 821.82 324.787 822.23 309.247 822.686 292.476 823.142 275.705 823.598 258.798 824.053 241.754 824.167 237.493 824.267 233.303 824.352 229.184L824.482 221.81 822.25 231.465C821.242 235.727 820.202 240.022 819.131 244.351 814.848 261.669 810.564 278.531 806.28 294.937 801.996 311.343 797.894 326.382 793.975 340.054 790.056 353.726 786.729 365.119 783.995 374.234L726.026 549.781 645.362 549.781 586.573 374.234C583.838 365.302 580.466 354 576.456 340.328 572.445 326.656 568.253 311.617 563.878 295.211 559.503 278.804 555.128 261.942 550.753 244.625L546.36 226.72 546.395 228.594C546.474 232.673 546.56 236.832 546.651 241.07 547.016 258.023 547.426 274.976 547.881 291.929 548.337 308.882 548.793 324.514 549.249 338.824 549.704 353.134 549.932 364.937 549.932 374.234L549.932 549.781 453.135 549.781Z" fill="url(#fill0)" fill-rule="evenodd"/><text fill="#000000" fill-opacity="0" font-family="Arial,Arial_MSFontService,sans-serif" font-size="413.164" x="104.771" y="503.878">eM</text><path d="M1072.61 106.52C1091.82 106.52 1108.77 109.923 1123.47 116.729 1138.18 123.534 1149.6 132.801 1157.74 144.528 1165.89 156.256 1169.96 169.472 1169.96 184.177 1169.96 199.246 1165.01 211.794 1155.1 221.82 1145.2 231.846 1132.41 238.014 1116.73 240.323L1116.73 242.328C1130.58 243.908 1142.19 247.523 1151.55 253.174 1160.9 258.825 1167.95 266.056 1172.69 274.867 1177.43 283.678 1179.8 293.673 1179.8 304.854 1179.8 320.409 1175.21 334.294 1166.04 346.507 1156.86 358.721 1144.13 368.261 1127.85 375.127 1111.56 381.994 1092.85 385.427 1071.7 385.427 1051.16 385.427 1032.97 381.902 1017.11 374.854 1001.25 367.805 988.76 358.053 979.646 345.596 970.531 333.139 965.913 318.769 965.792 302.484L1030.32 302.484C1030.57 308.439 1032.51 313.725 1036.16 318.343 1039.8 322.961 1044.75 326.547 1051.01 329.099 1057.27 331.651 1064.35 332.927 1072.25 332.927 1080.15 332.927 1087.11 331.529 1093.12 328.734 1099.14 325.939 1103.85 322.08 1107.25 317.159 1110.65 312.237 1112.35 306.494 1112.35 299.932 1112.35 293.369 1110.5 287.597 1106.79 282.614 1103.09 277.632 1097.8 273.712 1090.93 270.856 1084.07 268.001 1076.02 266.573 1066.78 266.573L1040.35 266.573 1040.35 220.635 1066.78 220.635C1074.8 220.635 1081.91 219.238 1088.11 216.442 1094.31 213.647 1099.14 209.849 1102.6 205.049 1106.06 200.249 1107.8 194.628 1107.8 188.187 1107.8 181.989 1106.31 176.551 1103.33 171.872 1100.35 167.193 1096.22 163.547 1090.93 160.935 1085.65 158.322 1079.48 157.015 1072.43 157.015 1065.02 157.015 1058.33 158.322 1052.38 160.935 1046.43 163.547 1041.69 167.163 1038.16 171.781 1034.64 176.399 1032.87 181.928 1032.87 188.369L971.078 188.369C971.2 172.328 975.666 158.139 984.477 145.804 993.287 133.469 1005.32 123.838 1020.57 116.911 1035.82 109.984 1053.17 106.52 1072.61 106.52Z" fill="url(#fill1)" fill-rule="evenodd"/><text fill="#000000" fill-opacity="0" font-family="Arial,Arial_MSFontService,sans-serif" font-size="278.906" x="965.792" y="350.563">3</text></g></svg>