<svg width="4298" height="1999" xmlns="http://www.w3.org/2000/svg" xmlns:xlink="http://www.w3.org/1999/xlink" xml:space="preserve" overflow="hidden"><defs><linearGradient x1="378.698" y1="1127.22" x2="4021.3" y2="1127.22" gradientUnits="userSpaceOnUse" spreadMethod="reflect" id="fill0"><stop offset="0" stop-color="#23275E"/><stop offset="0.00900901" stop-color="#24265D"/><stop offset="0.018018" stop-color="#26265D"/><stop offset="0.027027" stop-color="#28265D"/><stop offset="0.036036" stop-color="#2A265D"/><stop offset="0.045045" stop-color="#2C265D"/><stop offset="0.0540541" stop-color="#2E265D"/><stop offset="0.0630631" stop-color="#2F265D"/><stop offset="0.0720721" stop-color="#31265D"/><stop offset="0.0810811" stop-color="#33265D"/><stop offset="0.0900901" stop-color="#35265D"/><stop offset="0.0990991" stop-color="#36265D"/><stop offset="0.108108" stop-color="#38265D"/><stop offset="0.117117" stop-color="#3A265D"/><stop offset="0.126126" stop-color="#3C265D"/><stop offset="0.135135" stop-color="#3D265D"/><stop offset="0.144144" stop-color="#3F265C"/><stop offset="0.153153" stop-color="#40265C"/><stop offset="0.162162" stop-color="#42265C"/><stop offset="0.171171" stop-color="#44265C"/><stop offset="0.18018" stop-color="#45265C"/><stop offset="0.189189" stop-color="#47265C"/><stop offset="0.198198" stop-color="#48265C"/><stop offset="0.207207" stop-color="#4A265B"/><stop offset="0.216216" stop-color="#4C265B"/><stop offset="0.225225" stop-color="#4D265B"/><stop offset="0.234234" stop-color="#4F265B"/><stop offset="0.243243" stop-color="#50265B"/><stop offset="0.252252" stop-color="#52265A"/><stop offset="0.261261" stop-color="#53265A"/><stop offset="0.27027" stop-color="#54265A"/><stop offset="0.279279" stop-color="#56265A"/><stop offset="0.288288" stop-color="#57265A"/><stop offset="0.297297" stop-color="#592659"/><stop offset="0.306306" stop-color="#5A2659"/><stop offset="0.315315" stop-color="#5B2559"/><stop offset="0.324324" stop-color="#5D2559"/><stop offset="0.333333" stop-color="#5E2558"/><stop offset="0.342342" stop-color="#5F2558"/><stop offset="0.351351" stop-color="#612558"/><stop offset="0.36036" stop-color="#622557"/><stop offset="0.369369" stop-color="#632557"/><stop offset="0.378378" stop-color="#652557"/><stop offset="0.387387" stop-color="#662557"/><stop offset="0.396396" stop-color="#672556"/><stop offset="0.405405" stop-color="#682556"/><stop offset="0.414414" stop-color="#692556"/><stop offset="0.423423" stop-color="#6B2555"/><stop offset="0.432432" stop-color="#6C2555"/><stop offset="0.441441" stop-color="#6D2555"/><stop offset="0.45045" stop-color="#6E2454"/><stop offset="0.459459" stop-color="#6F2454"/><stop offset="0.468468" stop-color="#702454"/><stop offset="0.477477" stop-color="#712453"/><stop offset="0.486486" stop-color="#722453"/><stop offset="0.495495" stop-color="#732453"/><stop offset="0.504505" stop-color="#742452"/><stop offset="0.513514" stop-color="#752452"/><stop offset="0.522523" stop-color="#762451"/><stop offset="0.531532" stop-color="#772451"/><stop offset="0.540541" stop-color="#782451"/><stop offset="0.54955" stop-color="#792450"/><stop offset="0.558559" stop-color="#7A2350"/><stop offset="0.567568" stop-color="#7B234F"/><stop offset="0.576577" stop-color="#7C234F"/><stop offset="0.585586" stop-color="#7D234E"/><stop offset="0.594595" stop-color="#7E234E"/><stop offset="0.603604" stop-color="#7F234E"/><stop offset="0.612613" stop-color="#80234D"/><stop offset="0.621622" stop-color="#80234D"/><stop offset="0.630631" stop-color="#81234C"/><stop offset="0.63964" stop-color="#82234C"/><stop offset="0.648649" stop-color="#83234B"/><stop offset="0.657658" stop-color="#83224B"/><stop offset="0.666667" stop-color="#84224A"/><stop offset="0.675676" stop-color="#85224A"/><stop offset="0.684685" stop-color="#862249"/><stop offset="0.693694" stop-color="#862249"/><stop offset="0.702703" stop-color="#872248"/><stop offset="0.711712" stop-color="#882248"/><stop offset="0.720721" stop-color="#882247"/><stop offset="0.72973" stop-color="#892247"/><stop offset="0.738739" stop-color="#892146"/><stop offset="0.747748" stop-color="#8A2146"/><stop offset="0.756757" stop-color="#8B2145"/><stop offset="0.765766" stop-color="#8B2145"/><stop offset="0.774775" stop-color="#8C2144"/><stop offset="0.783784" stop-color="#8C2144"/><stop offset="0.792793" stop-color="#8D2143"/><stop offset="0.801802" stop-color="#8D2142"/><stop offset="0.810811" stop-color="#8E2042"/><stop offset="0.81982" stop-color="#8E2041"/><stop offset="0.828829" stop-color="#8E2041"/><stop offset="0.837838" stop-color="#8F2040"/><stop offset="0.846847" stop-color="#8F203F"/><stop offset="0.855856" stop-color="#90203F"/><stop offset="0.864865" stop-color="#90203E"/><stop offset="0.873874" stop-color="#90203E"/><stop offset="0.882883" stop-color="#901F3D"/><stop offset="0.891892" stop-color="#911F3C"/><stop offset="0.900901" stop-color="#911F3C"/><stop offset="0.90991" stop-color="#911F3B"/><stop offset="0.918919" stop-color="#911F3B"/><stop offset="0.927928" stop-color="#921F3A"/><stop offset="0.936937" stop-color="#921F39"/><stop offset="0.945946" stop-color="#921E39"/><stop offset="0.954955" stop-color="#921E38"/><stop offset="0.963964" stop-color="#921E37"/><stop offset="0.972973" stop-color="#921E37"/><stop offset="0.981982" stop-color="#921E36"/><stop offset="0.990991" stop-color="#921E35"/><stop offset="1" stop-color="#931E35"/></linearGradient><linearGradient x1="378.698" y1="1127.22" x2="4021.3" y2="1127.22" gradientUnits="userSpaceOnUse" spreadMethod="reflect" id="fill1"><stop offset="0" stop-color="#23275E"/><stop offset="0.00900901" stop-color="#24265D"/><stop offset="0.018018" stop-color="#26265D"/><stop offset="0.027027" stop-color="#28265D"/><stop offset="0.036036" stop-color="#2A265D"/><stop offset="0.045045" stop-color="#2C265D"/><stop offset="0.0540541" stop-color="#2E265D"/><stop offset="0.0630631" stop-color="#2F265D"/><stop offset="0.0720721" stop-color="#31265D"/><stop offset="0.0810811" stop-color="#33265D"/><stop offset="0.0900901" stop-color="#35265D"/><stop offset="0.0990991" stop-color="#36265D"/><stop offset="0.108108" stop-color="#38265D"/><stop offset="0.117117" stop-color="#3A265D"/><stop offset="0.126126" stop-color="#3C265D"/><stop offset="0.135135" stop-color="#3D265D"/><stop offset="0.144144" stop-color="#3F265C"/><stop offset="0.153153" stop-color="#40265C"/><stop offset="0.162162" stop-color="#42265C"/><stop offset="0.171171" stop-color="#44265C"/><stop offset="0.18018" stop-color="#45265C"/><stop offset="0.189189" stop-color="#47265C"/><stop offset="0.198198" stop-color="#48265C"/><stop offset="0.207207" stop-color="#4A265B"/><stop offset="0.216216" stop-color="#4C265B"/><stop offset="0.225225" stop-color="#4D265B"/><stop offset="0.234234" stop-color="#4F265B"/><stop offset="0.243243" stop-color="#50265B"/><stop offset="0.252252" stop-color="#52265A"/><stop offset="0.261261" stop-color="#53265A"/><stop offset="0.27027" stop-color="#54265A"/><stop offset="0.279279" stop-color="#56265A"/><stop offset="0.288288" stop-color="#57265A"/><stop offset="0.297297" stop-color="#592659"/><stop offset="0.306306" stop-color="#5A2659"/><stop offset="0.315315" stop-color="#5B2559"/><stop offset="0.324324" stop-color="#5D2559"/><stop offset="0.333333" stop-color="#5E2558"/><stop offset="0.342342" stop-color="#5F2558"/><stop offset="0.351351" stop-color="#612558"/><stop offset="0.36036" stop-color="#622557"/><stop offset="0.369369" stop-color="#632557"/><stop offset="0.378378" stop-color="#652557"/><stop offset="0.387387" stop-color="#662557"/><stop offset="0.396396" stop-color="#672556"/><stop offset="0.405405" stop-color="#682556"/><stop offset="0.414414" stop-color="#692556"/><stop offset="0.423423" stop-color="#6B2555"/><stop offset="0.432432" stop-color="#6C2555"/><stop offset="0.441441" stop-color="#6D2555"/><stop offset="0.45045" stop-color="#6E2454"/><stop offset="0.459459" stop-color="#6F2454"/><stop offset="0.468468" stop-color="#702454"/><stop offset="0.477477" stop-color="#712453"/><stop offset="0.486486" stop-color="#722453"/><stop offset="0.495495" stop-color="#732453"/><stop offset="0.504505" stop-color="#742452"/><stop offset="0.513514" stop-color="#752452"/><stop offset="0.522523" stop-color="#762451"/><stop offset="0.531532" stop-color="#772451"/><stop offset="0.540541" stop-color="#782451"/><stop offset="0.54955" stop-color="#792450"/><stop offset="0.558559" stop-color="#7A2350"/><stop offset="0.567568" stop-color="#7B234F"/><stop offset="0.576577" stop-color="#7C234F"/><stop offset="0.585586" stop-color="#7D234E"/><stop offset="0.594595" stop-color="#7E234E"/><stop offset="0.603604" stop-color="#7F234E"/><stop offset="0.612613" stop-color="#80234D"/><stop offset="0.621622" stop-color="#80234D"/><stop offset="0.630631" stop-color="#81234C"/><stop offset="0.63964" stop-color="#82234C"/><stop offset="0.648649" stop-color="#83234B"/><stop offset="0.657658" stop-color="#83224B"/><stop offset="0.666667" stop-color="#84224A"/><stop offset="0.675676" stop-color="#85224A"/><stop offset="0.684685" stop-color="#862249"/><stop offset="0.693694" stop-color="#862249"/><stop offset="0.702703" stop-color="#872248"/><stop offset="0.711712" stop-color="#882248"/><stop offset="0.720721" stop-color="#882247"/><stop offset="0.72973" stop-color="#892247"/><stop offset="0.738739" stop-color="#892146"/><stop offset="0.747748" stop-color="#8A2146"/><stop offset="0.756757" stop-color="#8B2145"/><stop offset="0.765766" stop-color="#8B2145"/><stop offset="0.774775" stop-color="#8C2144"/><stop offset="0.783784" stop-color="#8C2144"/><stop offset="0.792793" stop-color="#8D2143"/><stop offset="0.801802" stop-color="#8D2142"/><stop offset="0.810811" stop-color="#8E2042"/><stop offset="0.81982" stop-color="#8E2041"/><stop offset="0.828829" stop-color="#8E2041"/><stop offset="0.837838" stop-color="#8F2040"/><stop offset="0.846847" stop-color="#8F203F"/><stop offset="0.855856" stop-color="#90203F"/><stop offset="0.864865" stop-color="#90203E"/><stop offset="0.873874" stop-color="#90203E"/><stop offset="0.882883" stop-color="#901F3D"/><stop offset="0.891892" stop-color="#911F3C"/><stop offset="0.900901" stop-color="#911F3C"/><stop offset="0.90991" stop-color="#911F3B"/><stop offset="0.918919" stop-color="#911F3B"/><stop offset="0.927928" stop-color="#921F3A"/><stop offset="0.936937" stop-color="#921F39"/><stop offset="0.945946" stop-color="#921E39"/><stop offset="0.954955" stop-color="#921E38"/><stop offset="0.963964" stop-color="#921E37"/><stop offset="0.972973" stop-color="#921E37"/><stop offset="0.981982" stop-color="#921E36"/><stop offset="0.990991" stop-color="#921E35"/><stop offset="1" stop-color="#931E35"/></linearGradient></defs><g transform="translate(-51 -238)"><path d="M940.508 1001.15C899.824 1001.15 865.421 1010.28 837.3 1028.52 809.18 1046.77 787.79 1072.2 773.132 1104.81 763.97 1125.19 757.672 1147.73 754.236 1172.43L753.097 1182.44 1124 1182.44 1123.32 1175.79C1120.02 1149.71 1113.98 1126.2 1105.19 1105.26 1091.13 1071.75 1070.34 1046.03 1042.82 1028.08 1015.3 1010.13 981.193 1001.15 940.508 1001.15ZM937.816 774.095C1008.42 774.095 1073.18 785.164 1132.12 807.301 1191.05 829.438 1242.2 862.196 1285.58 905.573 1328.96 948.95 1362.46 1002.35 1386.1 1065.77 1409.73 1129.19 1421.55 1202.48 1421.55 1285.65L1421.55 1364.62 751.398 1364.62 751.544 1369.16C753.409 1412.32 761.802 1448.95 776.722 1479.05 793.774 1513.45 817.556 1539.18 848.07 1556.23 878.584 1573.28 914.183 1581.81 954.868 1581.81 982.988 1581.81 1008.57 1577.92 1031.6 1570.14 1054.64 1562.36 1074.38 1550.7 1090.83 1535.14 1107.29 1519.59 1119.7 1500.74 1128.08 1478.6L1407.19 1524.37C1390.44 1581.81 1361.57 1631.92 1320.58 1674.7 1279.6 1717.48 1227.85 1750.53 1165.32 1773.87 1102.8 1797.2 1030.85 1808.87 949.483 1808.87 844.779 1808.87 754.435 1788.08 678.45 1746.49 602.465 1704.91 544.279 1645.53 503.894 1568.35 463.508 1491.17 443.315 1399.03 443.315 1291.93 443.315 1189.02 463.508 1098.68 503.894 1020.9 544.279 943.117 601.567 882.538 675.758 839.161 749.948 795.784 837.3 774.095 937.816 774.095ZM1586.81 452.804 2080.42 452.804 2250.94 973.331C2260.51 1005.04 2271.43 1047.07 2283.69 1099.42 2295.96 1151.78 2308.37 1207.87 2320.94 1267.7 2330.36 1312.57 2339.19 1356.27 2347.44 1398.78L2351.08 1417.7 2354.54 1399.65C2362.73 1357.08 2371.42 1313.24 2380.62 1268.15 2392.88 1208.02 2405.15 1151.93 2417.41 1099.87 2429.68 1047.82 2440.6 1005.64 2450.17 973.331L2618 452.804 3112.5 452.804 3112.5 1790.02 2793.9 1790.02 2793.9 1213.85C2793.9 1183.94 2794.5 1145.49 2795.69 1098.53 2796.89 1051.56 2798.24 1000.55 2799.73 945.51 2801.23 890.466 2802.72 834.973 2804.22 779.031 2804.78 758.053 2805.24 737.6 2805.59 717.674L2805.65 713.454 2798.3 745.264C2794.99 759.249 2791.58 773.347 2788.07 787.557 2774.01 844.396 2759.95 899.739 2745.88 953.587 2731.82 1007.43 2718.36 1056.8 2705.5 1101.67 2692.64 1146.54 2681.72 1183.94 2672.74 1213.85L2482.48 1790.02 2217.73 1790.02 2024.77 1213.85C2015.8 1184.53 2004.73 1147.44 1991.57 1102.57 1978.41 1057.69 1964.64 1008.33 1950.29 954.485 1935.93 900.637 1921.57 845.293 1907.21 788.454 1903.62 774.244 1900.1 760.128 1896.66 746.105L1892.79 730.098 1892.9 735.841C1893.17 749.228 1893.45 762.877 1893.75 776.787 1894.94 832.43 1896.29 888.072 1897.78 943.715 1899.28 999.358 1900.78 1050.66 1902.27 1097.63 1903.77 1144.6 1904.52 1183.34 1904.52 1213.85L1904.52 1790.02 1586.81 1790.02Z" fill="url(#fill0)" fill-rule="evenodd"/><text fill="#000000" fill-opacity="0" font-family="Arial,Arial_MSFontService,sans-serif" font-size="1356.06" x="443.315" y="1639.36">eM</text><path d="M3619.5 335.814C3682.51 335.814 3738.14 346.979 3786.39 369.31 3834.64 391.641 3872.12 422.047 3898.84 460.527 3925.55 499.008 3938.91 542.373 3938.91 590.624 3938.91 640.07 3922.66 681.243 3890.16 714.14 3857.66 747.038 3815.7 767.276 3764.25 774.852L3764.25 781.432C3809.71 786.616 3847.8 798.479 3878.5 817.021 3909.2 835.564 3932.33 859.29 3947.89 888.201 3963.44 917.111 3971.21 949.909 3971.21 986.595 3971.21 1037.64 3956.16 1083.2 3926.05 1123.27 3895.95 1163.35 3854.18 1194.65 3800.74 1217.18 3747.31 1239.71 3685.9 1250.98 3616.51 1250.98 3549.12 1250.98 3489.41 1239.41 3437.37 1216.28 3385.33 1193.15 3344.36 1161.15 3314.45 1120.28 3284.54 1079.41 3269.39 1032.25 3268.99 978.819L3480.73 978.819C3481.53 998.359 3487.91 1015.71 3499.87 1030.86 3511.84 1046.01 3528.09 1057.77 3548.62 1066.15 3569.16 1074.52 3592.39 1078.71 3618.31 1078.71 3644.23 1078.71 3667.06 1074.12 3686.79 1064.95 3706.53 1055.78 3721.99 1043.12 3733.15 1026.97 3744.32 1010.82 3749.9 991.979 3749.9 970.445 3749.9 948.912 3743.82 929.971 3731.66 913.622 3719.49 897.272 3702.15 884.412 3679.62 875.041 3657.09 865.67 3630.67 860.985 3600.36 860.985L3513.63 860.985 3513.63 710.253 3600.36 710.253C3626.68 710.253 3650.01 705.667 3670.35 696.495 3690.68 687.324 3706.53 674.862 3717.9 659.111 3729.26 643.36 3734.95 624.917 3734.95 603.783 3734.95 583.446 3730.06 565.601 3720.29 550.249 3710.52 534.897 3696.96 522.934 3679.62 514.36 3662.27 505.787 3642.03 501.5 3618.91 501.5 3594.58 501.5 3572.65 505.787 3553.11 514.36 3533.57 522.934 3518.02 534.797 3506.45 549.95 3494.89 565.103 3489.11 583.247 3489.11 604.381L3286.34 604.381C3286.74 551.744 3301.39 505.189 3330.3 464.714 3359.21 424.24 3398.69 392.638 3448.73 369.908 3498.78 347.179 3555.7 335.814 3619.5 335.814Z" fill="url(#fill1)" fill-rule="evenodd"/><text fill="#000000" fill-opacity="0" font-family="Arial,Arial_MSFontService,sans-serif" font-size="915.161" x="3268.99" y="1136.58">3</text></g></svg>